<svg width="96" height="96" viewBox="0 0 96 96" fill="none" xmlns="http://www.w3.org/2000/svg" role="img" aria-labelledby="title desc">
  <title id="title">TraceMind symbol</title>
  <desc id="desc">A transparent minimal symbol with branching research traces and an evidence eye.</desc>
  <path d="M24 14V82" stroke="#111827" stroke-width="7" stroke-linecap="round"/>
  <path d="M24 48C42 48 51 34 66 22C74 16 81 14 88 14" stroke="#0F766E" stroke-width="6" stroke-linecap="round"/>
  <path d="M24 48C43 48 53 62 68 74C76 80 82 82 88 82" stroke="#2563EB" stroke-width="6" stroke-linecap="round"/>
  <circle cx="24" cy="14" r="9" fill="#111827"/>
  <circle cx="24" cy="48" r="9" fill="#F5B84B"/>
  <circle cx="24" cy="82" r="9" fill="#111827"/>
  <circle cx="88" cy="14" r="8" fill="#0F766E"/>
  <circle cx="88" cy="82" r="8" fill="#2563EB"/>
  <path d="M40 48C48 38 58 34 68 34C78 34 88 38 94 48C88 58 78 62 68 62C58 62 48 58 40 48Z" stroke="#111827" stroke-width="5" stroke-linejoin="round"/>
  <circle cx="68" cy="48" r="8" fill="#111827"/>
</svg>
